<svg width="500" height="500" viewBox="0 0 500 500" fill="none" xmlns="http://www.w3.org/2000/svg">
<path d="M464.172 246.766L261.047 43.6406C254.938 37.5312 245.063 37.5312 238.953 43.6406L35.8281 246.766C29.7187 252.875 29.7187 262.75 35.8281 268.859C41.9375 274.969 51.8125 274.969 57.9219 268.859L250 76.7813L375.219 202C375.203 202.391 375 202.734 375 203.125V437.5H125V281.25C125 272.609 118 265.625 109.375 265.625C100.75 265.625 93.75 272.609 93.75 281.25V453.125C93.75 461.766 100.75 468.75 109.375 468.75H390.625C399.266 468.75 406.25 461.766 406.25 453.125V233.031L442.078 268.859C445.125 271.906 449.125 273.437 453.125 273.437C457.125 273.437 461.125 271.906 464.172 268.859C470.281 262.75 470.281 252.875 464.172 246.766Z" fill="black"/>
</svg>
